<svg width="188" height="45" viewBox="0 0 188 45" fill="none" xmlns="http://www.w3.org/2000/svg">
<path d="M14.012 12.288L11.292 11.846V9.738H29.414L29.856 15.45H27.476L26.354 12.084L19.01 11.778V20.924L23.736 20.822L24.28 18.034H26.456V26.262H24.28L23.736 23.338L19.01 23.236V32.824L27.238 32.416L29.21 28.064L31.76 28.778L30.876 35H11.326V32.96L14.012 32.62V12.288ZM44.0713 22.658L37.1353 12.322L34.7893 11.846V9.738H45.9073V11.846L43.0173 12.322L47.6753 20.04L52.4693 12.288L49.5453 11.846V9.738H58.2833V11.846L55.5293 12.322L48.9333 21.57L56.3453 32.62L58.7253 32.96V35H47.6413V32.96L50.4973 32.62L45.3973 24.29L40.5013 32.62L43.7653 32.96V35H34.4833V32.96L37.3393 32.62L44.0713 22.658ZM69.9988 9.602H75.2008L83.0548 32.62L85.0268 32.96V35H74.9968V32.96L77.5468 32.62L76.2208 28.2H67.4148L66.0888 32.654L68.8428 32.96V35H60.1728L60.1388 32.96L62.1788 32.62L69.9988 9.602ZM72.3448 15.348L71.7328 12.696L71.0868 15.382L68.0608 25.82H75.5408L72.3448 15.348ZM92.0298 12.288L88.3578 11.846V9.738H98.9658L103.012 24.358L103.964 28.336L104.78 24.358L108.792 9.738H119.298V11.846L115.592 12.288L118.312 32.586L121.066 32.96V35H110.22V32.96L113.212 32.62L111.716 17.728L111.07 11.506L109.812 16.742L104.882 33.946H101.278L96.2458 17.626L94.5118 11.506L94.0018 17.728L92.7098 32.62L96.1438 32.96V35H86.6918V32.96L89.5478 32.62L92.0298 12.288ZM127.88 35.306C127.178 35.306 126.566 35.068 126.044 34.592C125.523 34.0933 125.262 33.47 125.262 32.722C125.262 31.8833 125.557 31.2033 126.146 30.682C126.758 30.138 127.495 29.866 128.356 29.866C129.172 29.866 129.818 30.1267 130.294 30.648C130.77 31.1467 131.008 31.7473 131.008 32.45C131.008 33.334 130.714 34.0367 130.124 34.558C129.558 35.0567 128.81 35.306 127.88 35.306ZM151.979 35.34C151.231 35.34 150.687 35.1813 150.347 34.864C150.007 34.5467 149.837 34.0707 149.837 33.436V32.518C149.225 33.266 148.364 33.9347 147.253 34.524C146.143 35.0907 145.032 35.374 143.921 35.374C141.745 35.374 140.193 34.8187 139.263 33.708C138.334 32.5747 137.869 30.716 137.869 28.132V18.544L136.169 18.068V16.13L141.949 15.688H141.983L142.663 16.164V28.132C142.663 29.7867 142.867 30.9427 143.275 31.6C143.683 32.2573 144.443 32.586 145.553 32.586C146.891 32.586 148.137 32.0647 149.293 31.022V18.544L147.015 18.034V16.13L153.169 15.688H153.237L154.053 16.164V32.892H155.957L155.923 34.83C155.833 34.8527 155.413 34.9433 154.665 35.102C153.917 35.2607 153.022 35.34 151.979 35.34ZM164.1 18.544L163.318 21.876H160.87V16.096H175.864L176.646 17.864L167.602 30.41L165.222 32.858L172.838 32.484L174.47 28.574L176.782 28.846L176.238 35H160.462L159.612 33.13L168.894 20.856L171.342 18.306L164.1 18.544Z" fill="white"/>
</svg>
